<svg xmlns="http://www.w3.org/2000/svg" viewBox="10 10 9780 5590">
  <path d="M 4457 5352 L 4210 5105 L 4210 5070 L 2440 5070 L 2440 4410 L 2040 4410 L 2040 4790 L 1215 4789 L 910 4555 L 910 3550 L 1330 3550 L 1330 2980 L 1050 2980 L 1050 3280 L 690 3280 L 690 3660 L 427 3660 L 10 3405 L 11 2045 L 431 1780 L 690 1780 L 690 2160 L 1050 2160 L 1050 2490 L 1330 2490 L 1330 1960 L 920 1960 L 921 975 L 1219 720 L 2040 720 L 2040 1000 L 3950 1000 L 3950 483 L 4430 10 L 5870 10 L 6560 682 L 6560 1000 L 6990 1000 L 6990 550 L 7579 550 L 8089 1045 L 8090 1790 L 7780 1790 L 7780 2010 L 8320 2010 L 8320 2320 L 8940 2320 L 8940 2010 L 9394 2010 L 9790 2351 L 9790 2796 L 9399 3120 L 8940 3120 L 8940 2810 L 8320 2810 L 8320 3200 L 7780 3200 L 7780 3760 L 8090 3760 L 8090 4498 L 7563 5010 L 6990 5010 L 6990 4540 L 6780 4540 L 6780 4670 L 6920 4670 L 6918 5355 L 6662 5590 L 5968 5590 L 5720 5356 L 5720 4670 L 6360 4670 L 6360 4540 L 5650 4540 L 5650 5600 L 4705 5600 Z M 3030 3850 L 3030 3130 L 4250 3130 L 4250 3447 L 3960 3731 L 3960 4197 L 3710 4440 L 3420 4440 L 3420 4570 L 4210 4570 L 4210 3810 L 4575 3451 L 5030 3450 L 5030 2620 L 4535 2620 L 3950 2035 L 3950 1510 L 3520 1510 L 3520 1610 L 3685 1610 L 3850 1610 L 3850 2207 L 4250 2600 L 4250 2930 L 3025 2930 L 2830 2672 L 2830 1610 L 3110 1610 L 3110 1510 L 2040 1510 L 2040 1960 L 1740 1960 L 1740 2490 L 2060 2490 L 2060 2232 L 2285 2010 L 2536 2010 L 2710 2187 L 2710 3270 L 2060 3270 L 2060 2980 L 1740 2980 L 1740 3550 L 2040 3550 L 2040 3920 L 2840 3920 L 2840 4570 L 3030 4570 Z M 6988 4024 L 7240 3760 L 7370 3760 L 7370 2710 L 7910 2710 L 7910 2500 L 7200 2500 L 7200 2760 L 6310 2760 L 6310 2388 L 6670 2010 L 6670 1920 L 7200 1920 L 7200 2010 L 7370 2010 L 7370 1790 L 7248 1790 L 6990 1546 L 6990 1500 L 6560 1500 L 6560 2015 L 5955 2620 L 5450 2620 L 5450 2880 L 7020 2880 L 7020 3738 L 6797 3960 L 5830 3960 L 5830 3370 L 5450 3370 L 5450 3450 L 5650 3450 L 5650 4050 L 6989 4050 Z" stroke="#FF0000" stroke-width="0.1" fill="#000000"/>
</svg>
